<svg preserveAspectRatio="none" overflow="visible" style="display: block;" width="24" height="24" viewBox="0 0 24 24" fill="none" xmlns="http://www.w3.org/2000/svg">
<g id="SpeakerSimpleHigh">
<path id="Vector" d="M15.75 3V21C15.7499 21.1403 15.7104 21.2778 15.6361 21.3968C15.5617 21.5159 15.4554 21.6116 15.3293 21.6733C15.2033 21.7349 15.0624 21.7599 14.9228 21.7455C14.7832 21.731 14.6505 21.6777 14.5397 21.5916L7.99219 16.5H3.75C3.35218 16.5 2.97064 16.342 2.68934 16.0607C2.40804 15.7794 2.25 15.3978 2.25 15V9C2.25 8.60217 2.40804 8.22064 2.68934 7.93934C2.97064 7.65804 3.35218 7.5 3.75 7.5H7.99219L14.5397 2.40844C14.6505 2.3223 14.7832 2.26899 14.9228 2.25454C15.0624 2.2401 15.2033 2.26512 15.3293 2.32674C15.4554 2.38837 15.5617 2.48413 15.6361 2.60315C15.7104 2.72217 15.7499 2.85966 15.75 3ZM18.75 9C18.5511 9 18.3603 9.07902 18.2197 9.21967C18.079 9.36032 18 9.55109 18 9.75V14.25C18 14.4489 18.079 14.6397 18.2197 14.7803C18.3603 14.921 18.5511 15 18.75 15C18.9489 15 19.1397 14.921 19.2803 14.7803C19.421 14.6397 19.5 14.4489 19.5 14.25V9.75C19.5 9.55109 19.421 9.36032 19.2803 9.21967C19.1397 9.07902 18.9489 9 18.75 9ZM21.75 7.5C21.5511 7.5 21.3603 7.57902 21.2197 7.71967C21.079 7.86032 21 8.05109 21 8.25V15.75C21 15.9489 21.079 16.1397 21.2197 16.2803C21.3603 16.421 21.5511 16.5 21.75 16.5C21.9489 16.5 22.1397 16.421 22.2803 16.2803C22.421 16.1397 22.5 15.9489 22.5 15.75V8.25C22.5 8.05109 22.421 7.86032 22.2803 7.71967C22.1397 7.57902 21.9489 7.5 21.75 7.5Z" fill="#333333"/>
</g>
</svg>
